<mxfile host="app.diagrams.net" modified="2021-07-23T04:34:27.028Z" agent="5.0 (Windows NT 10.0; Win64; x64) AppleWebKit/537.36 (KHTML, like Gecko) Chrome/91.0.4472.164 Safari/537.36" etag="ooW6uqWy5rOFqrUmztXW" version="14.9.0" type="github">
  <diagram id="WE8mRkxJ6QYw7pnQf_lu" name="Page-1">
    <mxGraphModel dx="952" dy="456" grid="1" gridSize="10" guides="1" tooltips="1" connect="1" arrows="1" fold="1" page="1" pageScale="1" pageWidth="827" pageHeight="1169" math="0" shadow="0">
      <root>
        <mxCell id="0" />
        <mxCell id="1" parent="0" />
        <mxCell id="6d75Q0BAorunseVZBWpx-1" value="Người dùng" style="swimlane;whiteSpace=wrap" parent="1" vertex="1">
          <mxGeometry x="164.5" y="128" width="280" height="752" as="geometry" />
        </mxCell>
        <mxCell id="6d75Q0BAorunseVZBWpx-2" value="" style="ellipse;shape=startState;fillColor=#000000;strokeColor=#ff0000;" parent="6d75Q0BAorunseVZBWpx-1" vertex="1">
          <mxGeometry x="100" y="40" width="30" height="30" as="geometry" />
        </mxCell>
        <mxCell id="6d75Q0BAorunseVZBWpx-3" value="" style="edgeStyle=elbowEdgeStyle;elbow=horizontal;verticalAlign=bottom;endArrow=open;endSize=8;strokeColor=#FF0000;endFill=1;rounded=0" parent="6d75Q0BAorunseVZBWpx-1" source="6d75Q0BAorunseVZBWpx-2" target="6d75Q0BAorunseVZBWpx-4" edge="1">
          <mxGeometry x="100" y="40" as="geometry">
            <mxPoint x="115" y="110" as="targetPoint" />
          </mxGeometry>
        </mxCell>
        <mxCell id="6d75Q0BAorunseVZBWpx-4" value="Truy cập Fsale" style="" parent="6d75Q0BAorunseVZBWpx-1" vertex="1">
          <mxGeometry x="60" y="110" width="110" height="50" as="geometry" />
        </mxCell>
        <mxCell id="6d75Q0BAorunseVZBWpx-5" value="Đăng nhập bằng tài &#xa;khoản thủ kho" style="" parent="6d75Q0BAorunseVZBWpx-1" vertex="1">
          <mxGeometry x="60" y="202" width="110" height="50" as="geometry" />
        </mxCell>
        <mxCell id="6d75Q0BAorunseVZBWpx-6" value="" style="endArrow=open;strokeColor=#FF0000;endFill=1;rounded=0" parent="6d75Q0BAorunseVZBWpx-1" source="6d75Q0BAorunseVZBWpx-4" target="6d75Q0BAorunseVZBWpx-5" edge="1">
          <mxGeometry relative="1" as="geometry" />
        </mxCell>
        <mxCell id="6d75Q0BAorunseVZBWpx-7" value="Click button duyệt hàng" style="" parent="6d75Q0BAorunseVZBWpx-1" vertex="1">
          <mxGeometry x="50" y="312" width="130" height="50" as="geometry" />
        </mxCell>
        <mxCell id="6d75Q0BAorunseVZBWpx-8" value="Giao diện" style="swimlane;whiteSpace=wrap" parent="1" vertex="1">
          <mxGeometry x="444.5" y="128" width="280" height="752" as="geometry" />
        </mxCell>
        <mxCell id="6d75Q0BAorunseVZBWpx-9" value="Giao diện của &#xa;quản lý kho" style="" parent="6d75Q0BAorunseVZBWpx-8" vertex="1">
          <mxGeometry x="85.5" y="202" width="110" height="50" as="geometry" />
        </mxCell>
        <mxCell id="6d75Q0BAorunseVZBWpx-10" value="Refresh lại trang" style="" parent="6d75Q0BAorunseVZBWpx-8" vertex="1">
          <mxGeometry x="85" y="612" width="110" height="50" as="geometry" />
        </mxCell>
        <mxCell id="6d75Q0BAorunseVZBWpx-12" value="" style="ellipse;shape=startState;fillColor=#000000;strokeColor=#ff0000;" parent="6d75Q0BAorunseVZBWpx-8" vertex="1">
          <mxGeometry x="125" y="692" width="30" height="30" as="geometry" />
        </mxCell>
        <mxCell id="6d75Q0BAorunseVZBWpx-13" value="" style="endArrow=open;strokeColor=#FF0000;endFill=1;rounded=0;exitX=0.5;exitY=1;exitDx=0;exitDy=0;entryX=0.5;entryY=0;entryDx=0;entryDy=0;" parent="6d75Q0BAorunseVZBWpx-8" source="6d75Q0BAorunseVZBWpx-10" target="6d75Q0BAorunseVZBWpx-12" edge="1">
          <mxGeometry relative="1" as="geometry">
            <mxPoint x="135.5" y="572" as="sourcePoint" />
            <mxPoint x="135.5" y="614" as="targetPoint" />
          </mxGeometry>
        </mxCell>
        <mxCell id="6d75Q0BAorunseVZBWpx-14" value="Hệ thống" style="swimlane;whiteSpace=wrap" parent="1" vertex="1">
          <mxGeometry x="724.5" y="140" width="280" height="752" as="geometry" />
        </mxCell>
        <mxCell id="6d75Q0BAorunseVZBWpx-16" value="Đổi trạng thái đơn&#xa;thành đã duyệt" style="" parent="6d75Q0BAorunseVZBWpx-14" vertex="1">
          <mxGeometry x="90" y="502" width="110" height="50" as="geometry" />
        </mxCell>
        <mxCell id="6d75Q0BAorunseVZBWpx-17" value="" style="endArrow=open;strokeColor=#FF0000;endFill=1;rounded=0;exitX=0.5;exitY=1;exitDx=0;exitDy=0;entryX=0.5;entryY=0;entryDx=0;entryDy=0;" parent="6d75Q0BAorunseVZBWpx-14" source="6d75Q0BAorunseVZBWpx-26" target="pMcczWtnKn_Ql-7QkM7y-1" edge="1">
          <mxGeometry relative="1" as="geometry">
            <mxPoint x="145" y="432" as="sourcePoint" />
            <mxPoint x="185.5" y="430" as="targetPoint" />
          </mxGeometry>
        </mxCell>
        <mxCell id="6d75Q0BAorunseVZBWpx-26" value="Xuất excel &#xa;chi tiết đơn hàng" style="" parent="6d75Q0BAorunseVZBWpx-14" vertex="1">
          <mxGeometry x="90" y="360" width="110" height="50" as="geometry" />
        </mxCell>
        <mxCell id="pMcczWtnKn_Ql-7QkM7y-1" value="Cộng tiền vào tài &#xa;khoản người bán" style="" vertex="1" parent="6d75Q0BAorunseVZBWpx-14">
          <mxGeometry x="90" y="430" width="110" height="50" as="geometry" />
        </mxCell>
        <mxCell id="pMcczWtnKn_Ql-7QkM7y-2" value="" style="endArrow=open;strokeColor=#FF0000;endFill=1;rounded=0;exitX=0.5;exitY=1;exitDx=0;exitDy=0;entryX=0.5;entryY=0;entryDx=0;entryDy=0;" edge="1" parent="6d75Q0BAorunseVZBWpx-14" source="pMcczWtnKn_Ql-7QkM7y-1" target="6d75Q0BAorunseVZBWpx-16">
          <mxGeometry relative="1" as="geometry">
            <mxPoint x="155" y="420" as="sourcePoint" />
            <mxPoint x="155" y="440" as="targetPoint" />
          </mxGeometry>
        </mxCell>
        <mxCell id="6d75Q0BAorunseVZBWpx-18" value="" style="endArrow=open;strokeColor=#FF0000;endFill=1;rounded=0;entryX=0;entryY=0.5;entryDx=0;entryDy=0;exitX=1;exitY=0.5;exitDx=0;exitDy=0;" parent="1" source="6d75Q0BAorunseVZBWpx-5" target="6d75Q0BAorunseVZBWpx-9" edge="1">
          <mxGeometry relative="1" as="geometry">
            <mxPoint x="334.5" y="478" as="sourcePoint" />
            <mxPoint x="464.5" y="478" as="targetPoint" />
          </mxGeometry>
        </mxCell>
        <mxCell id="6d75Q0BAorunseVZBWpx-19" value="" style="endArrow=open;strokeColor=#FF0000;endFill=1;rounded=0;exitX=0.5;exitY=1;exitDx=0;exitDy=0;entryX=0.5;entryY=0;entryDx=0;entryDy=0;" parent="1" source="6d75Q0BAorunseVZBWpx-9" target="6d75Q0BAorunseVZBWpx-7" edge="1">
          <mxGeometry relative="1" as="geometry">
            <mxPoint x="590" y="400" as="sourcePoint" />
            <mxPoint x="250" y="440" as="targetPoint" />
            <Array as="points">
              <mxPoint x="585" y="410" />
              <mxPoint x="280" y="410" />
            </Array>
          </mxGeometry>
        </mxCell>
        <mxCell id="6d75Q0BAorunseVZBWpx-20" value="" style="endArrow=open;strokeColor=#FF0000;endFill=1;rounded=0;exitX=1;exitY=0.5;exitDx=0;exitDy=0;entryX=0.5;entryY=0;entryDx=0;entryDy=0;" parent="1" source="6d75Q0BAorunseVZBWpx-7" target="6d75Q0BAorunseVZBWpx-26" edge="1">
          <mxGeometry relative="1" as="geometry">
            <mxPoint x="344.5" y="365" as="sourcePoint" />
            <mxPoint x="869.5" y="480" as="targetPoint" />
            <Array as="points">
              <mxPoint x="870" y="465" />
            </Array>
          </mxGeometry>
        </mxCell>
        <mxCell id="6d75Q0BAorunseVZBWpx-24" value="" style="endArrow=open;strokeColor=#FF0000;endFill=1;rounded=0;entryX=0.5;entryY=0;entryDx=0;entryDy=0;exitX=0.5;exitY=1;exitDx=0;exitDy=0;" parent="1" source="6d75Q0BAorunseVZBWpx-16" target="6d75Q0BAorunseVZBWpx-10" edge="1">
          <mxGeometry relative="1" as="geometry">
            <mxPoint x="880" y="730" as="sourcePoint" />
            <mxPoint x="584.5" y="630" as="targetPoint" />
            <Array as="points">
              <mxPoint x="870" y="710" />
              <mxPoint x="585" y="710" />
            </Array>
          </mxGeometry>
        </mxCell>
      </root>
    </mxGraphModel>
  </diagram>
</mxfile>
